<?xml version="1.0" encoding="UTF-8"?>
<svg xmlns="http://www.w3.org/2000/svg" xmlns:xlink="http://www.w3.org/1999/xlink" viewBox="0 0 80.76 80.8">
  <defs>
    <style>
      .cls-1 {
        fill: url(#linear-gradient-2);
      }

      .cls-2 {
        mix-blend-mode: hard-light;
        opacity: .16;
      }

      .cls-2, .cls-3 {
        fill: #fff;
      }

      .cls-4 {
        fill: url(#linear-gradient-6);
      }

      .cls-5 {
        isolation: isolate;
      }

      .cls-3 {
        font-family: Montserrat-Bold, Montserrat;
        font-size: 24.22px;
        font-weight: 700;
      }

      .cls-6 {
        fill: url(#radial-gradient);
      }

      .cls-7 {
        fill: url(#linear-gradient-5);
      }

      .cls-8 {
        fill: url(#radial-gradient-2);
      }

      .cls-9 {
        fill: url(#radial-gradient-3);
      }

      .cls-10 {
        fill: url(#linear-gradient-3);
      }

      .cls-11 {
        fill: url(#linear-gradient);
      }

      .cls-12 {
        fill: url(#linear-gradient-4);
      }
    </style>
    <linearGradient id="linear-gradient" x1="11.84" y1="68.96" x2="68.92" y2="11.88" gradientUnits="userSpaceOnUse">
      <stop offset="0" stop-color="#f9b865"/>
      <stop offset=".25" stop-color="#fbf4a1"/>
      <stop offset=".5" stop-color="#f9b865"/>
      <stop offset=".81" stop-color="#fbf4a1"/>
      <stop offset="1" stop-color="#f9b865"/>
    </linearGradient>
    <radialGradient id="radial-gradient" cx="40.38" cy="40.42" fx="40.38" fy="40.42" r="39.41" gradientUnits="userSpaceOnUse">
      <stop offset="0" stop-color="#7a983c"/>
      <stop offset="1" stop-color="#445023"/>
    </radialGradient>
    <radialGradient id="radial-gradient-2" cx="40.38" cy="40.42" fx="40.38" fy="40.42" r="38.19" gradientUnits="userSpaceOnUse">
      <stop offset="0" stop-color="#e01f2c"/>
      <stop offset=".99" stop-color="#8e1922"/>
    </radialGradient>
    <radialGradient id="radial-gradient-3" cx="40.38" cy="40.42" fx="40.38" fy="40.42" r="29.83" xlink:href="#radial-gradient"/>
    <linearGradient id="linear-gradient-2" x1="40.38" y1="78.9" x2="40.38" y2="1.93" gradientUnits="userSpaceOnUse">
      <stop offset="0" stop-color="#953d20"/>
      <stop offset=".25" stop-color="#c79b2d"/>
      <stop offset=".5" stop-color="#953d20"/>
      <stop offset=".81" stop-color="#c79b2d"/>
      <stop offset="1" stop-color="#953d20"/>
    </linearGradient>
    <linearGradient id="linear-gradient-3" x1="13.5" y1="67.3" x2="67.26" y2="13.54" xlink:href="#linear-gradient"/>
    <linearGradient id="linear-gradient-4" x1="19.54" y1="19.58" x2="61.22" y2="61.26" xlink:href="#linear-gradient-2"/>
    <linearGradient id="linear-gradient-5" x1="19.54" y1="19.58" x2="61.22" y2="61.26" xlink:href="#linear-gradient"/>
    <linearGradient id="linear-gradient-6" x1="7.51" y1="40.42" x2="73.24" y2="40.42" xlink:href="#linear-gradient-2"/>
  </defs>
  <g class="cls-5">
    <g id="Layer_2" data-name="Layer 2">
      <g id="Layer_1-2" data-name="Layer 1">
        <g>
          <g>
            <path class="cls-11" d="M40.38,.04C18.12,.04,0,18.15,0,40.42s18.12,40.38,40.38,40.38,40.38-18.12,40.38-40.38S62.64,.04,40.38,.04Z"/>
            <path class="cls-6" d="M40.38,1.01C18.65,1.01,.96,18.68,.96,40.42s17.68,39.41,39.42,39.41,39.41-17.68,39.41-39.41S62.11,1.01,40.38,1.01Z"/>
            <path class="cls-8" d="M37.29,76.36c-1.76-1.45-4.15-1.87-6.3-1.11l-3.77,1.33-2.04-3.44c-1.16-1.96-3.26-3.18-5.54-3.2l-4-.04-.74-3.93c-.42-2.24-1.98-4.09-4.11-4.9l-3.74-1.41,.65-3.94c.37-2.25-.46-4.53-2.19-6.01l-3.04-2.6,1.96-3.49c1.12-1.98,1.12-4.41,0-6.39l-1.96-3.49,3.04-2.6c1.73-1.49,2.56-3.76,2.19-6.01l-.65-3.95,3.74-1.41c2.13-.8,3.69-2.66,4.11-4.9l.74-3.93,4-.04c2.28-.03,4.38-1.24,5.54-3.2l2.04-3.44,3.77,1.33c2.15,.76,4.54,.33,6.3-1.11l3.09-2.54,3.09,2.54c1.76,1.45,4.15,1.87,6.3,1.11l3.77-1.33,2.03,3.44c1.16,1.96,3.26,3.17,5.54,3.2l4,.04,.73,3.93c.42,2.24,1.98,4.09,4.11,4.9l3.74,1.41-.65,3.95c-.37,2.25,.46,4.53,2.19,6.01l3.04,2.6-1.96,3.49c-1.12,1.98-1.12,4.41,0,6.39l1.96,3.49-3.04,2.6c-1.73,1.48-2.56,3.76-2.19,6.01l.65,3.94-3.74,1.41c-2.13,.8-3.69,2.66-4.11,4.9l-.73,3.93-4,.04c-2.28,.02-4.38,1.24-5.54,3.2l-2.03,3.44-3.77-1.33c-2.15-.76-4.54-.33-6.3,1.11l-3.09,2.54-3.09-2.54Z"/>
            <path class="cls-9" d="M40.38,70.25c-16.45,0-29.83-13.38-29.83-29.83S23.93,10.59,40.38,10.59s29.83,13.38,29.83,29.83-13.38,29.83-29.83,29.83Z"/>
            <path class="cls-1" d="M37.29,76.36c-1.76-1.45-4.15-1.87-6.3-1.11l-3.77,1.33-2.04-3.44c-1.16-1.96-3.26-3.18-5.54-3.2l-4-.04-.74-3.93c-.42-2.24-1.98-4.09-4.11-4.9l-3.74-1.41,.65-3.94c.37-2.25-.46-4.53-2.19-6.01l-3.04-2.6,1.96-3.49c1.12-1.98,1.12-4.41,0-6.39l-1.96-3.49,3.04-2.6c1.73-1.49,2.56-3.76,2.19-6.01l-.65-3.95,3.74-1.41c2.13-.8,3.69-2.66,4.11-4.9l.74-3.93,4-.04c2.28-.03,4.38-1.24,5.54-3.2l2.04-3.44,3.77,1.33c2.15,.76,4.54,.33,6.3-1.11l3.09-2.54,3.09,2.54c1.76,1.45,4.15,1.87,6.3,1.11l3.77-1.33,2.03,3.44c1.16,1.96,3.26,3.17,5.54,3.2l4,.04,.73,3.93c.42,2.24,1.98,4.09,4.11,4.9l3.74,1.41-.65,3.95c-.37,2.25,.46,4.53,2.19,6.01l3.04,2.6-1.96,3.49c-1.12,1.98-1.12,4.41,0,6.39l1.96,3.49-3.04,2.6c-1.73,1.48-2.56,3.76-2.19,6.01l.65,3.94-3.74,1.41c-2.13,.8-3.69,2.66-4.11,4.9l-.73,3.93-4,.04c-2.28,.02-4.38,1.24-5.54,3.2l-2.03,3.44-3.77-1.33c-2.15-.76-4.54-.33-6.3,1.11l-3.09,2.54-3.09-2.54Zm3.09-3.06c18.16,0,32.89-14.72,32.89-32.89S58.55,7.53,40.38,7.53,7.49,22.26,7.49,40.42s14.72,32.89,32.89,32.89Z"/>
            <path class="cls-10" d="M37.44,76.17c-1.21-.99-2.73-1.54-4.29-1.54-.77,0-1.52,.13-2.25,.39l-3.58,1.26-1.93-3.26c-1.2-2.03-3.4-3.3-5.75-3.32l-3.8-.04-.7-3.73c-.43-2.31-2.07-4.26-4.27-5.08l-3.55-1.33,.62-3.75c.38-2.32-.49-4.71-2.27-6.24l-2.88-2.47,1.86-3.31c1.15-2.05,1.15-4.59,0-6.64l-1.86-3.31,2.88-2.47c1.78-1.53,2.65-3.92,2.27-6.24l-.62-3.74,3.55-1.33c2.2-.83,3.83-2.78,4.27-5.09l.7-3.73,3.79-.04c2.35-.02,4.55-1.3,5.75-3.32l1.93-3.27,3.58,1.26c.72,.26,1.48,.39,2.24,.39,1.56,0,3.09-.55,4.29-1.54l2.93-2.41,2.93,2.41c1.21,.99,2.73,1.54,4.29,1.54,.77,0,1.52-.13,2.24-.39l3.58-1.26,1.93,3.27c1.2,2.02,3.4,3.3,5.75,3.32l3.8,.04,.7,3.73c.43,2.31,2.07,4.26,4.27,5.08l3.55,1.33-.62,3.74c-.38,2.32,.49,4.71,2.27,6.24l2.88,2.47-1.86,3.31c-1.16,2.05-1.16,4.59,0,6.64l1.86,3.31-2.88,2.47c-1.78,1.53-2.65,3.92-2.27,6.24l.62,3.75-3.55,1.33c-2.2,.83-3.83,2.78-4.27,5.08l-.7,3.73-3.8,.04c-2.35,.02-4.55,1.3-5.75,3.32l-1.93,3.26-3.58-1.26c-.72-.26-1.48-.39-2.24-.39-1.56,0-3.09,.55-4.29,1.54l-2.93,2.41-2.94-2.41ZM40.38,7.28C22.11,7.28,7.24,22.15,7.24,40.42s14.87,33.14,33.14,33.14,33.13-14.87,33.13-33.14S58.65,7.28,40.38,7.28Z"/>
            <path class="cls-12" d="M40.38,69.9c-16.26,0-29.49-13.23-29.49-29.49S24.12,10.93,40.38,10.93s29.48,13.23,29.48,29.49-13.23,29.49-29.48,29.49Zm0-56.1c-14.67,0-26.61,11.94-26.61,26.61s11.94,26.61,26.61,26.61,26.61-11.93,26.61-26.61-11.94-26.61-26.61-26.61Z"/>
            <path class="cls-7" d="M40.38,10.93c-16.26,0-29.49,13.23-29.49,29.49s13.23,29.49,29.49,29.49,29.49-13.23,29.49-29.49-13.23-29.49-29.49-29.49Zm0,56.75c-15.03,0-27.26-12.23-27.26-27.26S25.35,13.16,40.38,13.16s27.26,12.23,27.26,27.26-12.23,27.26-27.26,27.26Z"/>
            <path class="cls-4" d="M40.38,73.28c-18.12,0-32.87-14.74-32.87-32.87S22.26,7.55,40.38,7.55s32.86,14.74,32.86,32.87-14.74,32.87-32.86,32.87Zm0-64.65c-17.55,0-31.78,14.23-31.78,31.78s14.23,31.78,31.78,31.78,31.78-14.23,31.78-31.78-14.23-31.78-31.78-31.78Z"/>
            <path class="cls-2" d="M1.08,36.6c11.89,4.08,25.28,6.23,39.3,6.23s27.41-2.15,39.3-6.23C78.24,16.18,61.17,0,40.38,0S2.52,16.18,1.08,36.6Z"/>
          </g>
          <text class="cls-3" transform="translate(26.54 47.56)"><tspan x="0" y="0">1K</tspan></text>
        </g>
      </g>
    </g>
  </g>
</svg>