<?xml version="1.0" encoding="UTF-8"?>
<svg xmlns="http://www.w3.org/2000/svg" xmlns:xlink="http://www.w3.org/1999/xlink" viewBox="0 0 237.47 72">
  <defs>
    <style>
      .cls-1 {
        fill: #4e4e4e;
      }

      .cls-1, .cls-2, .cls-3, .cls-4, .cls-5, .cls-6, .cls-7, .cls-8, .cls-9, .cls-10, .cls-11, .cls-12, .cls-13, .cls-14, .cls-15, .cls-16, .cls-17, .cls-18, .cls-19, .cls-20, .cls-21, .cls-22, .cls-23, .cls-24, .cls-25, .cls-26, .cls-27, .cls-28, .cls-29, .cls-30, .cls-31, .cls-32, .cls-33, .cls-34, .cls-35, .cls-36, .cls-37, .cls-38, .cls-39, .cls-40, .cls-41, .cls-42, .cls-43, .cls-44, .cls-45, .cls-46, .cls-47, .cls-48, .cls-49, .cls-50, .cls-51, .cls-52, .cls-53, .cls-54, .cls-55, .cls-56, .cls-57, .cls-58, .cls-59, .cls-60 {
        fill-rule: evenodd;
      }

      .cls-2 {
        fill: url(#linear-gradient-4);
      }

      .cls-3 {
        fill: url(#linear-gradient-12);
      }

      .cls-4 {
        fill: #541b55;
        mix-blend-mode: multiply;
        opacity: .3;
      }

      .cls-5 {
        fill: url(#linear-gradient-38);
      }

      .cls-6 {
        fill: url(#linear-gradient-21);
      }

      .cls-61 {
        isolation: isolate;
      }

      .cls-7 {
        fill: url(#linear-gradient-48);
      }

      .cls-8 {
        fill: url(#linear-gradient-44);
      }

      .cls-9 {
        fill: url(#linear-gradient-54);
      }

      .cls-10 {
        fill: url(#linear-gradient-36);
      }

      .cls-11 {
        fill: url(#linear-gradient-2);
      }

      .cls-11, .cls-17, .cls-26, .cls-33, .cls-41, .cls-44, .cls-48 {
        mix-blend-mode: screen;
      }

      .cls-12 {
        fill: #989898;
      }

      .cls-13 {
        fill: url(#linear-gradient);
      }

      .cls-14 {
        fill: #676767;
      }

      .cls-15 {
        fill: url(#linear-gradient-15);
      }

      .cls-16 {
        fill: url(#linear-gradient-9);
      }

      .cls-62 {
        letter-spacing: 0em;
      }

      .cls-17 {
        fill: url(#linear-gradient-51);
      }

      .cls-18 {
        fill: url(#linear-gradient-25);
      }

      .cls-19 {
        fill: url(#linear-gradient-34);
      }

      .cls-20 {
        fill: url(#linear-gradient-40);
      }

      .cls-21 {
        fill: url(#linear-gradient-6);
      }

      .cls-22 {
        fill: url(#linear-gradient-16);
      }

      .cls-23 {
        fill: url(#linear-gradient-29);
      }

      .cls-24 {
        fill: url(#linear-gradient-26);
      }

      .cls-25 {
        fill: url(#linear-gradient-14);
      }

      .cls-26 {
        fill: url(#linear-gradient-24);
      }

      .cls-27 {
        fill: url(#linear-gradient-37);
      }

      .cls-28 {
        fill: url(#linear-gradient-49);
      }

      .cls-29 {
        fill: url(#linear-gradient-5);
      }

      .cls-30 {
        fill: url(#linear-gradient-23);
      }

      .cls-31 {
        fill: url(#linear-gradient-28);
      }

      .cls-32 {
        fill: url(#linear-gradient-27);
      }

      .cls-33 {
        fill: #f79468;
        opacity: .25;
      }

      .cls-34 {
        fill: url(#linear-gradient-10);
      }

      .cls-35 {
        fill: url(#linear-gradient-18);
      }

      .cls-36 {
        fill: url(#linear-gradient-41);
      }

      .cls-37 {
        fill: url(#linear-gradient-32);
      }

      .cls-38 {
        fill: url(#linear-gradient-11);
      }

      .cls-39 {
        fill: url(#linear-gradient-30);
      }

      .cls-40 {
        fill: url(#linear-gradient-45);
      }

      .cls-41 {
        fill: url(#linear-gradient-42);
      }

      .cls-63 {
        fill: #fff;
        font-family: Montserrat-Black, Montserrat;
        font-size: 18.06px;
        font-weight: 800;
      }

      .cls-42 {
        fill: url(#linear-gradient-19);
      }

      .cls-64 {
        letter-spacing: -.02em;
      }

      .cls-43 {
        fill: url(#linear-gradient-20);
      }

      .cls-44 {
        fill: url(#linear-gradient-35);
      }

      .cls-45 {
        fill: url(#linear-gradient-47);
      }

      .cls-46 {
        fill: url(#linear-gradient-31);
      }

      .cls-47 {
        fill: url(#linear-gradient-53);
      }

      .cls-48 {
        fill: url(#linear-gradient-39);
      }

      .cls-49 {
        fill: url(#linear-gradient-52);
      }

      .cls-50 {
        fill: url(#linear-gradient-22);
      }

      .cls-51 {
        fill: url(#linear-gradient-50);
      }

      .cls-52 {
        fill: url(#linear-gradient-13);
      }

      .cls-53 {
        fill: url(#linear-gradient-7);
      }

      .cls-54 {
        fill: url(#linear-gradient-8);
      }

      .cls-55 {
        fill: url(#linear-gradient-46);
      }

      .cls-56 {
        fill: url(#linear-gradient-3);
      }

      .cls-57 {
        fill: url(#linear-gradient-43);
      }

      .cls-58 {
        fill: url(#linear-gradient-33);
      }

      .cls-59 {
        fill: #ccc;
      }

      .cls-60 {
        fill: url(#linear-gradient-17);
      }
    </style>
    <linearGradient id="linear-gradient" x1="118.74" y1="60.57" x2="118.74" y2="15.63" gradientUnits="userSpaceOnUse">
      <stop offset="0" stop-color="#2b3990"/>
      <stop offset=".2" stop-color="#2b3990"/>
      <stop offset="1" stop-color="#1c75bc"/>
    </linearGradient>
    <linearGradient id="linear-gradient-2" x1="118.74" y1="38.1" x2="118.74" y2="15.63" gradientUnits="userSpaceOnUse">
      <stop offset="0" stop-color="#2b3990"/>
      <stop offset="1" stop-color="#1c75bc"/>
    </linearGradient>
    <linearGradient id="linear-gradient-3" x1="118.74" y1="66.1" x2="118.74" y2="10.1" gradientUnits="userSpaceOnUse">
      <stop offset="0" stop-color="#4c3212"/>
      <stop offset="1" stop-color="#f0a425"/>
    </linearGradient>
    <linearGradient id="linear-gradient-4" x1="9.76" y1="16.04" x2="24.13" y2="16.04" gradientUnits="userSpaceOnUse">
      <stop offset="0" stop-color="#f4ae24"/>
      <stop offset="1" stop-color="#fee56b"/>
    </linearGradient>
    <linearGradient id="linear-gradient-5" x1="11.3" y1="18.8" x2="26.15" y2="18.8" gradientUnits="userSpaceOnUse">
      <stop offset="0" stop-color="#6d481c"/>
      <stop offset="1" stop-color="#cf9453"/>
    </linearGradient>
    <linearGradient id="linear-gradient-6" x1="118.74" y1="12.87" x2="118.74" y2="10.1" gradientUnits="userSpaceOnUse">
      <stop offset="0" stop-color="#fef190"/>
      <stop offset="1" stop-color="#fef9e4"/>
    </linearGradient>
    <linearGradient id="linear-gradient-7" x1="118.74" y1="15.63" x2="118.74" y2="12.87" xlink:href="#linear-gradient-5"/>
    <linearGradient id="linear-gradient-8" x1="7.35" y1="38.1" x2="7.35" y2="18.73" xlink:href="#linear-gradient-5"/>
    <linearGradient id="linear-gradient-9" x1="9.63" y1="38.1" x2="9.63" y2="21.89" gradientUnits="userSpaceOnUse">
      <stop offset="0" stop-color="#79431b"/>
      <stop offset="1" stop-color="#a16227"/>
    </linearGradient>
    <linearGradient id="linear-gradient-10" x1="7.35" y1="57.47" x2="7.35" y2="38.1" xlink:href="#linear-gradient-5"/>
    <linearGradient id="linear-gradient-11" y1="54.31" y2="38.1" xlink:href="#linear-gradient-9"/>
    <linearGradient id="linear-gradient-12" x1="11.3" y1="57.41" x2="26.15" y2="57.41" gradientUnits="userSpaceOnUse">
      <stop offset="0" stop-color="#fff0ac"/>
      <stop offset="1" stop-color="#febe45"/>
    </linearGradient>
    <linearGradient id="linear-gradient-13" x1="9.76" y1="60.16" x2="24.13" y2="60.16" gradientUnits="userSpaceOnUse">
      <stop offset="0" stop-color="#cf9453"/>
      <stop offset="1" stop-color="#6d481c"/>
    </linearGradient>
    <linearGradient id="linear-gradient-14" x1="220.53" y1="21.97" x2="220.53" y2="10.1" xlink:href="#linear-gradient-4"/>
    <linearGradient id="linear-gradient-15" x1="211.32" y1="18.8" x2="226.17" y2="18.8" xlink:href="#linear-gradient-13"/>
    <linearGradient id="linear-gradient-16" x1="230.12" y1="38.1" x2="230.12" y2="18.73" xlink:href="#linear-gradient-5"/>
    <linearGradient id="linear-gradient-17" x1="227.84" y1="38.1" x2="227.84" y2="21.89" gradientUnits="userSpaceOnUse">
      <stop offset="0" stop-color="#febe45"/>
      <stop offset="1" stop-color="#fff0ac"/>
    </linearGradient>
    <linearGradient id="linear-gradient-18" x1="230.12" y1="57.47" x2="230.12" y2="38.1" xlink:href="#linear-gradient-5"/>
    <linearGradient id="linear-gradient-19" y1="54.31" y2="38.1" xlink:href="#linear-gradient-17"/>
    <linearGradient id="linear-gradient-20" x1="211.32" y1="57.41" x2="226.17" y2="57.41" xlink:href="#linear-gradient-17"/>
    <linearGradient id="linear-gradient-21" x1="213.34" y1="60.16" x2="227.71" y2="60.16" xlink:href="#linear-gradient-5"/>
    <linearGradient id="linear-gradient-22" x1="118.74" y1="66.1" x2="118.74" y2="63.33" gradientUnits="userSpaceOnUse">
      <stop offset="0" stop-color="#463014"/>
      <stop offset="1" stop-color="#784a1e"/>
    </linearGradient>
    <linearGradient id="linear-gradient-23" x1="118.74" y1="63.33" x2="118.74" y2="60.57" xlink:href="#linear-gradient-17"/>
    <linearGradient id="linear-gradient-24" x1="228.67" y1="40.38" x2="228.67" y2="35.81" xlink:href="#linear-gradient-2"/>
    <linearGradient id="linear-gradient-25" x1="229.17" y1="34.07" x2="237.47" y2="34.07" gradientUnits="userSpaceOnUse">
      <stop offset="0" stop-color="#eda960"/>
      <stop offset="1" stop-color="#a26928"/>
    </linearGradient>
    <linearGradient id="linear-gradient-26" x1="219.02" y1="34.05" x2="229.29" y2="34.05" xlink:href="#linear-gradient-6"/>
    <linearGradient id="linear-gradient-27" x1="229.18" y1="42.13" x2="237.47" y2="42.13" gradientUnits="userSpaceOnUse">
      <stop offset="0" stop-color="#ab6127"/>
      <stop offset="1" stop-color="#743f1a"/>
    </linearGradient>
    <linearGradient id="linear-gradient-28" x1="219.02" y1="42.11" x2="229.3" y2="42.11" xlink:href="#linear-gradient-25"/>
    <linearGradient id="linear-gradient-29" x1="229.06" y1="41.08" x2="235.22" y2="41.08" xlink:href="#linear-gradient-17"/>
    <linearGradient id="linear-gradient-30" x1="221.58" y1="41.06" x2="229.18" y2="41.06" xlink:href="#linear-gradient-5"/>
    <linearGradient id="linear-gradient-31" x1="229.05" y1="35.12" x2="235.22" y2="35.12" gradientUnits="userSpaceOnUse">
      <stop offset="0" stop-color="#a15c25"/>
      <stop offset="1" stop-color="#e49745"/>
    </linearGradient>
    <linearGradient id="linear-gradient-32" x1="221.58" y1="35.1" x2="229.17" y2="35.1" xlink:href="#linear-gradient-27"/>
    <linearGradient id="linear-gradient-33" x1="228.95" y1="36.17" x2="232.97" y2="36.17" xlink:href="#linear-gradient-2"/>
    <linearGradient id="linear-gradient-34" x1="224.13" y1="40.01" x2="229.06" y2="40.01" xlink:href="#linear-gradient-2"/>
    <linearGradient id="linear-gradient-35" x1="227.6" y1="37.16" x2="226.32" y2="35.88" xlink:href="#linear-gradient-2"/>
    <linearGradient id="linear-gradient-36" x1="231.03" y1="40.04" x2="230.17" y2="39.18" xlink:href="#linear-gradient-2"/>
    <linearGradient id="linear-gradient-37" x1="76.56" y1="5.05" x2="118.74" y2="5.05" gradientUnits="userSpaceOnUse">
      <stop offset="0" stop-color="#de8c27"/>
      <stop offset=".72" stop-color="#ffd250"/>
      <stop offset="1" stop-color="#fee48a"/>
    </linearGradient>
    <linearGradient id="linear-gradient-38" x1="118.74" y1="5.05" x2="160.91" y2="5.05" gradientUnits="userSpaceOnUse">
      <stop offset="0" stop-color="#935423"/>
      <stop offset="1" stop-color="#e49a25"/>
    </linearGradient>
    <linearGradient id="linear-gradient-39" x1="81.13" y1="6.28" x2="118.74" y2="6.28" gradientUnits="userSpaceOnUse">
      <stop offset="0" stop-color="#483727"/>
      <stop offset="1" stop-color="#e8e7b2"/>
    </linearGradient>
    <linearGradient id="linear-gradient-40" x1="89.02" y1="69.05" x2="118.74" y2="69.05" xlink:href="#linear-gradient-38"/>
    <linearGradient id="linear-gradient-41" x1="118.74" y1="69.05" x2="148.45" y2="69.05" gradientUnits="userSpaceOnUse">
      <stop offset="0" stop-color="#935423"/>
      <stop offset="1" stop-color="#ce8429"/>
    </linearGradient>
    <linearGradient id="linear-gradient-42" x1="8.8" y1="40.38" x2="8.8" y2="35.81" xlink:href="#linear-gradient-2"/>
    <linearGradient id="linear-gradient-43" x1="0" y1="34.07" x2="8.3" y2="34.07" xlink:href="#linear-gradient-6"/>
    <linearGradient id="linear-gradient-44" x1="8.18" y1="34.05" x2="18.45" y2="34.05" xlink:href="#linear-gradient-25"/>
    <linearGradient id="linear-gradient-45" x1="0" y1="42.13" x2="8.29" y2="42.13" xlink:href="#linear-gradient-25"/>
    <linearGradient id="linear-gradient-46" x1="8.17" y1="42.11" x2="18.45" y2="42.11" xlink:href="#linear-gradient-27"/>
    <linearGradient id="linear-gradient-47" x1="2.25" y1="41.08" x2="8.41" y2="41.08" xlink:href="#linear-gradient-5"/>
    <linearGradient id="linear-gradient-48" x1="8.29" y1="41.06" x2="15.89" y2="41.06" xlink:href="#linear-gradient-17"/>
    <linearGradient id="linear-gradient-49" x1="2.25" y1="35.12" x2="8.42" y2="35.12" xlink:href="#linear-gradient-27"/>
    <linearGradient id="linear-gradient-50" x1="8.3" y1="35.1" x2="15.89" y2="35.1" xlink:href="#linear-gradient-31"/>
    <linearGradient id="linear-gradient-51" x1="7.31" y1="37.01" x2="6.45" y2="36.15" xlink:href="#linear-gradient-2"/>
    <linearGradient id="linear-gradient-52" x1="11.13" y1="40.27" x2="9.87" y2="39.01" xlink:href="#linear-gradient-2"/>
    <linearGradient id="linear-gradient-53" x1="8.42" y1="36.15" x2="13.34" y2="36.15" xlink:href="#linear-gradient-2"/>
    <linearGradient id="linear-gradient-54" x1="4.5" y1="40.03" x2="8.5" y2="40.03" xlink:href="#linear-gradient-2"/>
  </defs>
  <g class="cls-61">
    <g id="Layer_2" data-name="Layer 2">
      <g id="Layer_1-2" data-name="Layer 1">
        <g>
          <g>
            <path class="cls-13" d="M26.15,60.57H211.32c1-2.48,2.7-4.65,4.99-6.3,2.43-1.76,5.23-2.71,8.09-2.79,1.81-4.26,3.24-8.97,4.05-13.38-.82-4.4-2.25-9.11-4.05-13.38-2.87-.08-5.66-1.03-8.09-2.79-2.29-1.66-3.98-3.82-4.99-6.3H26.15c-1,2.48-2.7,4.65-4.99,6.3-2.43,1.76-5.23,2.71-8.09,2.79-1.81,4.26-3.24,8.97-4.05,13.38,.82,4.4,2.25,9.11,4.05,13.38,2.87,.08,5.66,1.03,8.09,2.79,2.29,1.66,3.98,3.82,4.99,6.3h0Z"/>
            <path class="cls-11" d="M9.01,38.1H228.46c-.82-4.4-2.25-9.11-4.05-13.38-2.87-.08-5.66-1.03-8.09-2.79-2.29-1.66-3.98-3.82-4.99-6.3H26.15c-1,2.48-2.7,4.65-4.99,6.3-2.43,1.76-5.23,2.71-8.09,2.79-1.81,4.26-3.24,8.97-4.05,13.38h0Z"/>
            <path class="cls-4" d="M213.68,56.69c-2.35,1.45-5.11,2.29-8.06,2.29H31.85c-2.95,0-5.71-.84-8.06-2.29,1,1.17,1.79,2.48,2.36,3.88H211.32c.57-1.41,1.36-2.71,2.36-3.88h0Z"/>
            <path class="cls-33" d="M118.74,58.51c39.25,0,71.07,.21,71.07,.47s-31.82,.47-71.07,.47-71.07-.21-71.07-.47,31.82-.47,71.07-.47h0Z"/>
            <path class="cls-14" d="M89.02,66.1c1.18,.99,3.98,2.42,5.41,2.81,3.13,0,13.86-.03,24.31,3.09,10.44-3.12,21.18-3.09,24.31-3.09,1.43-.39,4.22-1.82,5.41-2.81h-59.43Z"/>
            <path class="cls-56" d="M26.15,60.57H211.32c1-2.48,2.7-4.65,4.99-6.3,2.43-1.76,5.23-2.71,8.09-2.79,1.81-4.26,3.24-8.97,4.05-13.38-.82-4.4-2.25-9.11-4.05-13.38-2.87-.08-5.66-1.03-8.09-2.79-2.29-1.66-3.98-3.82-4.99-6.3H26.15c-1,2.48-2.7,4.65-4.99,6.3-2.43,1.76-5.23,2.71-8.09,2.79-1.81,4.26-3.24,8.97-4.05,13.38,.82,4.4,2.25,9.11,4.05,13.38,2.87,.08,5.66,1.03,8.09,2.79,2.29,1.66,3.98,3.82,4.99,6.3h0ZM21.67,10.1H215.8c0,3.01,1.32,5.59,3.76,7.36,2.43,1.76,5.3,2.21,8.16,1.27,3,5.9,5.32,13.19,6.36,19.37-1.04,6.18-3.36,13.47-6.36,19.37-2.86-.94-5.72-.49-8.16,1.27s-3.76,4.35-3.76,7.36H21.67c0-3.01-1.32-5.59-3.76-7.36s-5.3-2.21-8.16-1.27c-3-5.9-5.32-13.19-6.36-19.37,1.04-6.18,3.36-13.47,6.36-19.37,2.86,.94,5.72,.49,8.16-1.27,2.43-1.76,3.76-4.35,3.76-7.36h0Z"/>
            <path class="cls-2" d="M19.54,19.7c2.38-1.72,3.96-4.1,4.59-6.83l-2.46-2.76c0,3.01-1.32,5.59-3.76,7.36-2.43,1.76-5.3,2.21-8.16,1.27l1.54,3.16c2.9,.34,5.78-.41,8.24-2.19h0Z"/>
            <path class="cls-29" d="M24.13,12.87c-.63,2.73-2.21,5.11-4.59,6.83-2.46,1.78-5.34,2.54-8.24,2.19l1.77,2.83c2.87-.08,5.66-1.03,8.09-2.79,2.29-1.66,3.98-3.82,4.99-6.3l-2.02-2.76h0Z"/>
            <polygon class="cls-21" points="24.13 12.87 213.34 12.87 215.8 10.1 21.67 10.1 24.13 12.87 24.13 12.87"/>
            <polygon class="cls-53" points="213.34 12.87 24.13 12.87 26.15 15.63 211.32 15.63 213.34 12.87 213.34 12.87"/>
            <path class="cls-54" d="M6.2,38.1c.95-5.36,2.77-11.17,5.1-16.21l-1.54-3.16c-3,5.9-5.32,13.19-6.36,19.37h2.8Z"/>
            <path class="cls-16" d="M11.3,21.89c-2.33,5.04-4.15,10.85-5.1,16.21h2.81c.82-4.4,2.25-9.11,4.05-13.38l-1.77-2.83h0Z"/>
            <path class="cls-34" d="M11.3,54.31c-2.33-5.04-4.15-10.85-5.1-16.21H3.4c1.04,6.18,3.36,13.47,6.36,19.37l1.54-3.16h0Z"/>
            <path class="cls-38" d="M6.2,38.1c.95,5.36,2.77,11.17,5.1,16.21l1.77-2.84c-1.81-4.26-3.24-8.97-4.05-13.38h-2.81Z"/>
            <path class="cls-3" d="M21.16,54.27c-2.43-1.76-5.23-2.71-8.09-2.79l-1.77,2.84c2.9-.34,5.78,.41,8.24,2.19,2.38,1.72,3.96,4.1,4.59,6.83l2.02-2.76c-1-2.48-2.7-4.65-4.99-6.3h0Z"/>
            <path class="cls-52" d="M19.54,56.5c-2.46-1.78-5.34-2.54-8.24-2.19l-1.54,3.16c2.86-.94,5.72-.49,8.16,1.27s3.76,4.35,3.76,7.36l2.46-2.76c-.63-2.73-2.21-5.11-4.59-6.83h0Z"/>
            <path class="cls-25" d="M217.93,19.7c-2.38-1.72-3.96-4.1-4.59-6.83l2.46-2.76c0,3.01,1.32,5.59,3.76,7.36,2.43,1.76,5.3,2.21,8.16,1.27l-1.54,3.16c-2.9,.34-5.78-.41-8.24-2.19h0Z"/>
            <path class="cls-15" d="M213.34,12.87c.63,2.73,2.21,5.11,4.59,6.83,2.46,1.78,5.34,2.54,8.24,2.19l-1.77,2.83c-2.87-.08-5.66-1.03-8.09-2.79-2.29-1.66-3.98-3.82-4.99-6.3l2.02-2.76h0Z"/>
            <path class="cls-22" d="M231.27,38.1c-.95-5.36-2.77-11.17-5.1-16.21l1.54-3.16c3,5.9,5.32,13.19,6.36,19.37h-2.8Z"/>
            <path class="cls-60" d="M226.17,21.89c2.33,5.04,4.15,10.85,5.1,16.21h-2.81c-.82-4.4-2.25-9.11-4.05-13.38l1.77-2.83h0Z"/>
            <path class="cls-35" d="M226.17,54.31c2.33-5.04,4.15-10.85,5.1-16.21h2.8c-1.04,6.18-3.36,13.47-6.36,19.37l-1.54-3.16h0Z"/>
            <path class="cls-42" d="M231.27,38.1c-.95,5.36-2.77,11.17-5.1,16.21l-1.77-2.84c1.81-4.26,3.24-8.97,4.05-13.38h2.81Z"/>
            <path class="cls-43" d="M216.31,54.27c2.43-1.76,5.23-2.71,8.09-2.79l1.77,2.84c-2.9-.34-5.78,.41-8.24,2.19-2.38,1.72-3.96,4.1-4.59,6.83l-2.02-2.76c1-2.48,2.7-4.65,4.99-6.3h0Z"/>
            <path class="cls-6" d="M217.93,56.5c2.46-1.78,5.34-2.54,8.24-2.19l1.54,3.16c-2.86-.94-5.72-.49-8.16,1.27s-3.76,4.35-3.76,7.36l-2.46-2.76c.63-2.73,2.21-5.11,4.59-6.83h0Z"/>
            <polygon class="cls-50" points="24.13 63.33 213.34 63.33 215.8 66.1 21.67 66.1 24.13 63.33 24.13 63.33"/>
            <polygon class="cls-30" points="213.34 63.33 24.13 63.33 26.15 60.57 211.32 60.57 213.34 63.33 213.34 63.33"/>
            <polygon class="cls-12" points="237.47 38.1 229.29 30.04 219.02 38.05 229.29 46.16 237.47 38.1 237.47 38.1"/>
            <polygon class="cls-1" points="232.97 38.1 229.06 41.95 224.13 38.06 229.05 34.23 232.97 38.1 232.97 38.1"/>
            <polygon class="cls-26" points="231.28 38.1 228.97 40.38 226.05 38.07 228.95 35.81 231.28 38.1 231.28 38.1"/>
            <polygon class="cls-18" points="233.82 36.72 230.17 33.13 229.17 32.14 229.29 30.04 233.21 33.9 237.47 38.1 235.22 38.1 233.82 36.72 233.82 36.72"/>
            <polygon class="cls-24" points="227.41 33.5 221.58 38.06 219.02 38.05 226.95 31.86 229.29 30.04 229.17 32.14 227.41 33.5 227.41 33.5"/>
            <polygon class="cls-32" points="230.17 43.07 233.82 39.48 235.22 38.1 237.47 38.1 233.21 42.3 229.3 46.15 229.3 46.13 229.18 44.05 230.17 43.07 230.17 43.07"/>
            <polygon class="cls-31" points="221.58 38.06 227.42 42.67 229.17 44.06 229.18 44.05 229.3 46.13 229.3 46.15 229.29 46.16 226.96 44.32 219.02 38.05 221.58 38.06 221.58 38.06"/>
            <polygon class="cls-23" points="229.06 41.95 230.86 40.18 232.97 38.1 234.07 38.1 235.22 38.1 233.82 39.48 230.17 43.07 229.18 44.05 229.06 41.95 229.06 41.95"/>
            <polygon class="cls-39" points="227.84 41 229.06 41.95 229.18 44.05 229.17 44.06 227.42 42.67 221.58 38.06 224.13 38.06 227.84 41 227.84 41"/>
            <polygon class="cls-46" points="232.97 38.1 230.86 36.02 229.05 34.23 229.17 32.14 230.17 33.13 233.82 36.72 235.22 38.1 234.07 38.1 232.97 38.1 232.97 38.1"/>
            <polygon class="cls-37" points="227.84 35.18 224.13 38.06 221.58 38.06 227.41 33.5 229.17 32.14 229.05 34.23 227.84 35.18 227.84 35.18"/>
            <polygon class="cls-58" points="229.05 34.23 228.95 35.81 231.27 38.1 232.97 38.1 229.05 34.23 229.05 34.23"/>
            <polygon class="cls-19" points="229.06 41.95 228.97 40.38 226.05 38.07 224.13 38.06 229.06 41.95 229.06 41.95"/>
            <polygon class="cls-44" points="228.13 36.45 226.05 38.07 224.13 38.06 227.84 35.18 229.05 34.23 228.95 35.81 228.13 36.45 228.13 36.45"/>
            <polygon class="cls-10" points="228.97 40.38 231.27 38.12 231.28 38.1 232.97 38.1 230.86 40.18 229.06 41.95 228.97 40.38 228.97 40.38"/>
            <path class="cls-59" d="M76.56,10.1h84.35c-1.82-1.89-4.52-4-7.31-5.5-8.54,2.79-29.66,1.53-34.86-4.6-5.2,6.13-26.33,7.39-34.86,4.6-2.79,1.51-5.49,3.61-7.31,5.5h0Z"/>
            <path class="cls-27" d="M76.56,10.1h42.18V0c-5.2,6.13-26.33,7.39-34.86,4.6-2.79,1.51-5.49,3.61-7.31,5.5h0Z"/>
            <path class="cls-5" d="M160.91,10.1h-42.18V0c5.2,6.13,26.33,7.39,34.86,4.6,2.79,1.51,5.49,3.61,7.31,5.5h0Z"/>
            <path class="cls-48" d="M114.82,6.95c-8.61,3.01-24.66,2.87-33.69,3.15h37.61V2.45c0,2.22-.68,3.36-3.91,4.49h0Z"/>
            <path class="cls-20" d="M89.02,66.1c1.18,.99,3.98,2.42,5.41,2.81,3.13,0,13.86-.03,24.31,3.09v-5.9h-29.71Z"/>
            <path class="cls-36" d="M148.45,66.1c-1.18,.99-3.98,2.42-5.41,2.81-3.13,0-13.86-.03-24.31,3.09v-5.9h29.72Z"/>
            <polygon class="cls-12" points="0 38.1 8.18 30.04 18.45 38.05 8.18 46.16 0 38.1 0 38.1"/>
            <polygon class="cls-1" points="4.5 38.1 8.41 41.95 13.34 38.06 8.42 34.23 4.5 38.1 4.5 38.1"/>
            <polygon class="cls-41" points="6.19 38.1 8.5 40.38 11.42 38.07 8.52 35.81 6.19 38.1 6.19 38.1"/>
            <polygon class="cls-57" points="3.65 36.72 7.3 33.13 8.3 32.14 8.18 30.04 4.26 33.9 0 38.1 2.25 38.1 3.65 36.72 3.65 36.72"/>
            <polygon class="cls-8" points="10.06 33.5 15.89 38.06 18.45 38.05 10.52 31.86 8.18 30.04 8.3 32.14 10.06 33.5 10.06 33.5"/>
            <polygon class="cls-40" points="7.3 43.07 3.65 39.48 2.25 38.1 0 38.1 4.26 42.3 8.17 46.15 8.17 46.13 8.29 44.05 7.3 43.07 7.3 43.07"/>
            <polygon class="cls-55" points="15.89 38.06 10.05 42.67 8.3 44.06 8.29 44.05 8.17 46.13 8.17 46.15 8.18 46.16 10.51 44.32 18.45 38.05 15.89 38.06 15.89 38.06"/>
            <polygon class="cls-45" points="8.41 41.95 6.61 40.18 4.5 38.1 3.4 38.1 2.25 38.1 3.65 39.48 7.3 43.07 8.29 44.05 8.41 41.95 8.41 41.95"/>
            <polygon class="cls-7" points="9.63 41 8.41 41.95 8.29 44.05 8.3 44.06 10.05 42.67 15.89 38.06 13.34 38.06 9.63 41 9.63 41"/>
            <polygon class="cls-28" points="4.5 38.1 6.61 36.02 8.42 34.23 8.3 32.14 7.3 33.13 3.65 36.72 2.25 38.1 3.4 38.1 4.5 38.1 4.5 38.1"/>
            <polygon class="cls-51" points="9.63 35.18 13.34 38.06 15.89 38.06 10.06 33.5 8.3 32.14 8.42 34.23 9.63 35.18 9.63 35.18"/>
            <polygon class="cls-17" points="8.42 34.23 8.52 35.81 6.2 38.1 4.5 38.1 8.42 34.23 8.42 34.23"/>
            <polygon class="cls-49" points="8.41 41.95 8.5 40.38 11.42 38.07 13.34 38.06 8.41 41.95 8.41 41.95"/>
            <polygon class="cls-47" points="9.34 36.45 11.42 38.07 13.34 38.06 9.63 35.18 8.42 34.23 8.52 35.81 9.34 36.45 9.34 36.45"/>
            <polygon class="cls-9" points="8.5 40.38 6.21 38.12 6.19 38.1 4.5 38.1 6.61 40.18 8.41 41.95 8.5 40.38 8.5 40.38"/>
          </g>
          <text class="cls-63" transform="translate(55.02 41.34)"><tspan x="0" y="0">ALL ODD N</tspan><tspan class="cls-64" x="107.33" y="0">O</tspan><tspan class="cls-62" x="122.28" y="0">.</tspan></text>
        </g>
      </g>
    </g>
  </g>
</svg>