<?xml version="1.0" encoding="UTF-8"?>
<svg id="Layer_2" data-name="Layer 2" xmlns="http://www.w3.org/2000/svg" xmlns:xlink="http://www.w3.org/1999/xlink" viewBox="0 0 160.22 88.32">
  <defs>
    <style>
      .cls-1 {
        filter: url(#drop-shadow-1);
      }

      .cls-2 {
        stroke: url(#radial-gradient-4);
      }

      .cls-2, .cls-3, .cls-4, .cls-5, .cls-6 {
        fill: #ed1c24;
        fill-rule: evenodd;
        stroke-miterlimit: 10;
        stroke-width: 3px;
      }

      .cls-3 {
        stroke: url(#radial-gradient-5);
      }

      .cls-4 {
        stroke: url(#radial-gradient-3);
      }

      .cls-5 {
        stroke: url(#radial-gradient-2);
      }

      .cls-6 {
        stroke: url(#radial-gradient);
      }
    </style>
    <filter id="drop-shadow-1" filterUnits="userSpaceOnUse">
      <feOffset dx="7" dy="7"/>
      <feGaussianBlur result="blur" stdDeviation="5"/>
      <feFlood flood-color="#000" flood-opacity=".75"/>
      <feComposite in2="blur" operator="in"/>
      <feComposite in="SourceGraphic"/>
    </filter>
    <radialGradient id="radial-gradient" cx="80.11" cy="64.9" fx="80.11" fy="64.9" r="22.71" gradientUnits="userSpaceOnUse">
      <stop offset="0" stop-color="#e59925"/>
      <stop offset=".04" stop-color="#e8a536"/>
      <stop offset=".13" stop-color="#efc15d"/>
      <stop offset=".21" stop-color="#f5d87b"/>
      <stop offset=".3" stop-color="#f9e891"/>
      <stop offset=".39" stop-color="#fcf19e"/>
      <stop offset=".46" stop-color="#fdf5a3"/>
      <stop offset="1" stop-color="#f5c41d"/>
    </radialGradient>
    <radialGradient id="radial-gradient-2" cx="80.11" cy="40.91" fx="80.11" fy="40.91" r="5.65" xlink:href="#radial-gradient"/>
    <radialGradient id="radial-gradient-3" cx="80.11" cy="20.11" fx="80.11" fy="20.11" r="15.19" xlink:href="#radial-gradient"/>
    <radialGradient id="radial-gradient-4" cx="36.45" cy="27.91" fx="36.45" fy="27.91" r="30.71" xlink:href="#radial-gradient"/>
    <radialGradient id="radial-gradient-5" cx="123.77" cy="27.91" fx="123.77" fy="27.91" r="30.71" xlink:href="#radial-gradient"/>
  </defs>
  <g id="Layer_1-2" data-name="Layer 1">
    <g class="cls-1">
      <path class="cls-6" d="M92.35,52.22c-1.6,0-2.89,1.3-2.89,2.89s1.3,2.89,2.89,2.89c.95,0,1.8-.46,2.32-1.17,3.65,6.49-9.43,10.98-14.57-9.26-5.14,20.24-18.22,15.75-14.57,9.26,.53,.71,1.37,1.17,2.32,1.17,1.6,0,2.89-1.29,2.89-2.89s-1.29-2.89-2.89-2.89c-5.99-.2-8.16,4.2-8.23,7.7-.1,5.37,7.04,9.98,13.11,5.96-.15,7.47,2.42,14.13,7.36,20.09,4.94-5.96,7.51-12.62,7.36-20.09,6.08,4.02,13.21-.59,13.11-5.96-.07-3.49-2.23-7.9-8.23-7.7Z"/>
      <path class="cls-5" d="M75.96,40.91c0,2.29,1.86,4.15,4.15,4.15s4.15-1.86,4.15-4.15-1.86-4.15-4.15-4.15-4.15,1.86-4.15,4.15Z"/>
      <path class="cls-4" d="M85.9,17.47c-2.49-3.32-4.44-7.31-5.79-12.04-1.36,4.73-3.31,8.72-5.8,12.04,2.5,5.17,4.28,10.87,5.8,16.74,1.52-5.88,3.29-11.57,5.79-16.74Z"/>
      <path class="cls-2" d="M71.33,32.73c.64-8.47-5.8-17.02-12.48-21.59C39.01-2.41,24.73,14.73,3.42,9.44c8.46,12.59,18.62,11.92,29.76,3.6-.86,3.5-.12,6.6,2.6,9.21,1.94-19.47,25.26-7.69,27.21,3.03-2.42-3.76-5.66-5.67-7.85-6.97-3.77-2.24-14.21-3.78-14.51,1.69-.05,.88,.66,1.62,2.64,1.74-4.47,1.73-2.39,11.64,4.36,10.25-1.45-.54-4.71-9.66,4.67-8.86,4.3,.37,7.96,2.93,9.41,7,2.38,6.66-3.53,12.36-5.89,12.19,3.94-4.58-2.05-8.58-5.67-7.18-4.84,1.87-5.79,12.23,3.5,14.5,10.01,2.44,18.56-7.38,17.69-16.92Z"/>
      <path class="cls-3" d="M101.37,11.14c-6.68,4.56-13.13,13.12-12.48,21.59-.87,9.53,7.68,19.36,17.69,16.92,9.28-2.27,8.34-12.63,3.5-14.5-3.62-1.4-9.61,2.6-5.67,7.18-2.37,.17-8.27-5.54-5.89-12.19,1.46-4.08,5.11-6.64,9.41-7,9.39-.8,6.13,8.32,4.67,8.86,6.76,1.4,8.83-8.52,4.36-10.25,1.98-.12,2.69-.85,2.64-1.74-.3-5.47-10.75-3.93-14.51-1.69-2.19,1.3-5.42,3.21-7.85,6.97,1.95-10.72,25.27-22.5,27.21-3.03,2.72-2.61,3.46-5.71,2.6-9.21,11.14,8.32,21.3,8.98,29.76-3.6-21.31,5.29-35.59-11.85-55.44,1.7Z"/>
    </g>
  </g>
</svg>