<?xml version="1.0" encoding="UTF-8"?>
<svg id="Layer_2" data-name="Layer 2" xmlns="http://www.w3.org/2000/svg" xmlns:xlink="http://www.w3.org/1999/xlink" viewBox="0 0 366.43 115.13">
  <defs>
    <style>
      .cls-1 {
        fill: #febe10;
      }

      .cls-2 {
        fill: #2b3990;
        font-family: Montserrat-Black, Montserrat;
        font-size: 25.98px;
        font-weight: 800;
      }

      .cls-3 {
        fill: url(#radial-gradient);
      }

      .cls-4 {
        letter-spacing: 0em;
      }

      .cls-5 {
        letter-spacing: 0em;
      }

      .cls-6 {
        letter-spacing: -.03em;
      }
    </style>
    <radialGradient id="radial-gradient" cx="185.42" cy="191.56" fx="185.42" fy="191.56" r="194.33" gradientTransform="translate(253.12 -113.84) rotate(90)" gradientUnits="userSpaceOnUse">
      <stop offset="0" stop-color="#382512"/>
      <stop offset="1" stop-color="#020202"/>
    </radialGradient>
  </defs>
  <g id="Layer_1-2" data-name="Layer 1">
    <g>
      <polygon class="cls-1" points="361.37 30.96 361.37 27.22 350.5 27.22 347.18 23.9 269.94 23.9 266.61 27.22 198.81 27.22 195.49 23.9 118.25 23.9 114.93 27.22 72.58 27.22 68.29 22.93 39.04 22.93 34.75 27.22 5.59 27.22 5.59 67.9 0 73.48 0 102.74 5.59 108.32 5.59 112.06 22.35 112.06 25.41 115.13 42.36 115.13 45.42 112.06 111.39 112.06 114.45 115.13 149.9 115.13 152.97 112.06 236.62 112.06 239.69 115.13 269.65 115.13 322.46 115.13 325.52 112.06 361.37 112.06 361.37 65.69 366.43 60.63 366.43 36.02 361.37 30.96"/>
      <rect class="cls-3" x="144.79" y="-104.51" width="77.37" height="348.3" transform="translate(113.84 253.12) rotate(-90)"/>
      <polygon class="cls-1" points="271.21 0 225.24 0 133.94 0 87.97 0 65.35 28.87 133.94 28.87 225.24 28.87 293.83 28.87 271.21 0"/>
      <g>
        <g>
          <circle class="cls-1" cx="350.15" cy="62.2" r="1.87"/>
          <circle class="cls-1" cx="350.15" cy="71.66" r="1.87"/>
          <path class="cls-1" d="M350.15,82.99c1.03,0,1.87-.84,1.87-1.87s-.84-1.87-1.87-1.87-1.87,.84-1.87,1.87,.84,1.87,1.87,1.87Z"/>
          <circle class="cls-1" cx="350.15" cy="90.59" r="1.87"/>
          <path class="cls-1" d="M350.15,101.92c1.03,0,1.87-.84,1.87-1.87s-.84-1.87-1.87-1.87-1.87,.84-1.87,1.87,.84,1.87,1.87,1.87Z"/>
        </g>
        <g>
          <circle class="cls-1" cx="54.65" cy="39.23" r="1.87"/>
          <path class="cls-1" d="M43.32,39.23c0,1.03,.84,1.87,1.87,1.87s1.87-.84,1.87-1.87-.84-1.87-1.87-1.87-1.87,.84-1.87,1.87Z"/>
          <path class="cls-1" d="M33.86,39.23c0,1.03,.84,1.87,1.87,1.87s1.87-.84,1.87-1.87-.84-1.87-1.87-1.87-1.87,.84-1.87,1.87Z"/>
          <path class="cls-1" d="M24.39,39.23c0,1.03,.84,1.87,1.87,1.87s1.87-.84,1.87-1.87-.84-1.87-1.87-1.87-1.87,.84-1.87,1.87Z"/>
          <circle class="cls-1" cx="16.8" cy="39.23" r="1.87"/>
        </g>
      </g>
      <text class="cls-2" transform="translate(88.88 24.45)"><tspan class="cls-4" x="0" y="0">D</tspan><tspan class="cls-6" x="21.2" y="0">A</tspan><tspan class="cls-5" x="41.23" y="0">TE &amp; TIME</tspan></text>
    </g>
  </g>
</svg>