<?xml version="1.0" encoding="UTF-8"?>
<svg xmlns="http://www.w3.org/2000/svg" xmlns:xlink="http://www.w3.org/1999/xlink" viewBox="0 0 248.25 115.41">
  <defs>
    <style>
      .cls-1 {
        fill: #4e4e4e;
      }

      .cls-1, .cls-2, .cls-3, .cls-4, .cls-5, .cls-6, .cls-7, .cls-8, .cls-9, .cls-10, .cls-11, .cls-12, .cls-13, .cls-14, .cls-15, .cls-16, .cls-17, .cls-18, .cls-19, .cls-20, .cls-21, .cls-22, .cls-23, .cls-24, .cls-25, .cls-26, .cls-27, .cls-28, .cls-29, .cls-30, .cls-31, .cls-32, .cls-33, .cls-34, .cls-35, .cls-36, .cls-37, .cls-38, .cls-39, .cls-40, .cls-41, .cls-42, .cls-43, .cls-44, .cls-45, .cls-46, .cls-47, .cls-48, .cls-49, .cls-50, .cls-51, .cls-52, .cls-53, .cls-54, .cls-55, .cls-56, .cls-57, .cls-58, .cls-59, .cls-60 {
        fill-rule: evenodd;
      }

      .cls-2 {
        fill: url(#linear-gradient-4);
      }

      .cls-3 {
        fill: url(#linear-gradient-12);
      }

      .cls-4 {
        fill: #541b55;
        mix-blend-mode: multiply;
        opacity: .3;
      }

      .cls-5 {
        fill: url(#linear-gradient-38);
      }

      .cls-6 {
        fill: url(#linear-gradient-21);
      }

      .cls-61 {
        letter-spacing: -.03em;
      }

      .cls-62 {
        isolation: isolate;
      }

      .cls-7 {
        fill: url(#linear-gradient-48);
      }

      .cls-8 {
        fill: url(#linear-gradient-44);
      }

      .cls-9 {
        fill: url(#linear-gradient-54);
      }

      .cls-10 {
        fill: url(#linear-gradient-36);
      }

      .cls-11 {
        fill: url(#linear-gradient-2);
      }

      .cls-11, .cls-17, .cls-26, .cls-33, .cls-41, .cls-44, .cls-48 {
        mix-blend-mode: screen;
      }

      .cls-12 {
        fill: #989898;
      }

      .cls-13 {
        fill: url(#linear-gradient);
      }

      .cls-14 {
        fill: #676767;
      }

      .cls-15 {
        fill: url(#linear-gradient-15);
      }

      .cls-16 {
        fill: url(#linear-gradient-9);
      }

      .cls-17 {
        fill: url(#linear-gradient-51);
      }

      .cls-18 {
        fill: url(#linear-gradient-25);
      }

      .cls-19 {
        fill: url(#linear-gradient-34);
      }

      .cls-20 {
        fill: url(#linear-gradient-40);
      }

      .cls-21 {
        fill: url(#linear-gradient-6);
      }

      .cls-22 {
        fill: url(#linear-gradient-16);
      }

      .cls-23 {
        fill: url(#linear-gradient-29);
      }

      .cls-24 {
        fill: url(#linear-gradient-26);
      }

      .cls-25 {
        fill: url(#linear-gradient-14);
      }

      .cls-26 {
        fill: url(#linear-gradient-24);
      }

      .cls-27 {
        fill: url(#linear-gradient-37);
      }

      .cls-28 {
        fill: url(#linear-gradient-49);
      }

      .cls-29 {
        fill: url(#linear-gradient-5);
      }

      .cls-30 {
        fill: url(#linear-gradient-23);
      }

      .cls-31 {
        fill: url(#linear-gradient-28);
      }

      .cls-32 {
        fill: url(#linear-gradient-27);
      }

      .cls-33 {
        fill: #f79468;
        opacity: .25;
      }

      .cls-34 {
        fill: url(#linear-gradient-10);
      }

      .cls-63 {
        fill: #fff;
        font-family: Montserrat-Black, Montserrat;
        font-size: 25.09px;
        font-weight: 800;
      }

      .cls-35 {
        fill: url(#linear-gradient-18);
      }

      .cls-36 {
        fill: url(#linear-gradient-41);
      }

      .cls-37 {
        fill: url(#linear-gradient-32);
      }

      .cls-38 {
        fill: url(#linear-gradient-11);
      }

      .cls-39 {
        fill: url(#linear-gradient-30);
      }

      .cls-64 {
        letter-spacing: 0em;
      }

      .cls-40 {
        fill: url(#linear-gradient-45);
      }

      .cls-41 {
        fill: url(#linear-gradient-42);
      }

      .cls-42 {
        fill: url(#linear-gradient-19);
      }

      .cls-43 {
        fill: url(#linear-gradient-20);
      }

      .cls-44 {
        fill: url(#linear-gradient-35);
      }

      .cls-45 {
        fill: url(#linear-gradient-47);
      }

      .cls-46 {
        fill: url(#linear-gradient-31);
      }

      .cls-47 {
        fill: url(#linear-gradient-53);
      }

      .cls-48 {
        fill: url(#linear-gradient-39);
      }

      .cls-49 {
        fill: url(#linear-gradient-52);
      }

      .cls-50 {
        fill: url(#linear-gradient-22);
      }

      .cls-51 {
        fill: url(#linear-gradient-50);
      }

      .cls-52 {
        fill: url(#linear-gradient-13);
      }

      .cls-53 {
        fill: url(#linear-gradient-7);
      }

      .cls-54 {
        fill: url(#linear-gradient-8);
      }

      .cls-55 {
        fill: url(#linear-gradient-46);
      }

      .cls-56 {
        fill: url(#linear-gradient-3);
      }

      .cls-57 {
        fill: url(#linear-gradient-43);
      }

      .cls-58 {
        fill: url(#linear-gradient-33);
      }

      .cls-59 {
        fill: #ccc;
      }

      .cls-60 {
        fill: url(#linear-gradient-17);
      }
    </style>
    <linearGradient id="linear-gradient" x1="124.13" y1="103.46" x2="124.13" y2="56.48" gradientUnits="userSpaceOnUse">
      <stop offset="0" stop-color="#2b3990"/>
      <stop offset=".2" stop-color="#2b3990"/>
      <stop offset="1" stop-color="#1c75bc"/>
    </linearGradient>
    <linearGradient id="linear-gradient-2" x1="124.13" y1="79.97" x2="124.13" y2="56.48" gradientUnits="userSpaceOnUse">
      <stop offset="0" stop-color="#2b3990"/>
      <stop offset="1" stop-color="#1c75bc"/>
    </linearGradient>
    <linearGradient id="linear-gradient-3" x1="124.13" y1="109.24" x2="124.13" y2="50.7" gradientUnits="userSpaceOnUse">
      <stop offset="0" stop-color="#4c3212"/>
      <stop offset="1" stop-color="#f0a425"/>
    </linearGradient>
    <linearGradient id="linear-gradient-4" x1="10.2" y1="56.91" x2="25.22" y2="56.91" gradientUnits="userSpaceOnUse">
      <stop offset="0" stop-color="#f4ae24"/>
      <stop offset="1" stop-color="#fee56b"/>
    </linearGradient>
    <linearGradient id="linear-gradient-5" x1="11.81" y1="59.79" x2="27.33" y2="59.79" gradientUnits="userSpaceOnUse">
      <stop offset="0" stop-color="#6d481c"/>
      <stop offset="1" stop-color="#cf9453"/>
    </linearGradient>
    <linearGradient id="linear-gradient-6" x1="124.13" y1="53.59" x2="124.13" y2="50.7" gradientUnits="userSpaceOnUse">
      <stop offset="0" stop-color="#fef190"/>
      <stop offset="1" stop-color="#fef9e4"/>
    </linearGradient>
    <linearGradient id="linear-gradient-7" x1="124.13" y1="56.48" x2="124.13" y2="53.59" xlink:href="#linear-gradient-5"/>
    <linearGradient id="linear-gradient-8" x1="7.68" y1="79.97" x2="7.68" y2="59.72" xlink:href="#linear-gradient-5"/>
    <linearGradient id="linear-gradient-9" x1="10.07" y1="79.97" x2="10.07" y2="63.03" gradientUnits="userSpaceOnUse">
      <stop offset="0" stop-color="#79431b"/>
      <stop offset="1" stop-color="#a16227"/>
    </linearGradient>
    <linearGradient id="linear-gradient-10" x1="7.68" y1="100.22" x2="7.68" y2="79.97" xlink:href="#linear-gradient-5"/>
    <linearGradient id="linear-gradient-11" y1="96.92" y2="79.97" xlink:href="#linear-gradient-9"/>
    <linearGradient id="linear-gradient-12" x1="11.81" y1="100.16" x2="27.33" y2="100.16" gradientUnits="userSpaceOnUse">
      <stop offset="0" stop-color="#fff0ac"/>
      <stop offset="1" stop-color="#febe45"/>
    </linearGradient>
    <linearGradient id="linear-gradient-13" x1="10.2" y1="103.04" x2="25.22" y2="103.04" gradientUnits="userSpaceOnUse">
      <stop offset="0" stop-color="#cf9453"/>
      <stop offset="1" stop-color="#6d481c"/>
    </linearGradient>
    <linearGradient id="linear-gradient-14" x1="230.54" y1="63.11" x2="230.54" y2="50.7" xlink:href="#linear-gradient-4"/>
    <linearGradient id="linear-gradient-15" x1="220.92" y1="59.79" x2="236.44" y2="59.79" xlink:href="#linear-gradient-13"/>
    <linearGradient id="linear-gradient-16" x1="240.57" y1="79.97" x2="240.57" y2="59.72" xlink:href="#linear-gradient-5"/>
    <linearGradient id="linear-gradient-17" x1="238.18" y1="79.97" x2="238.18" y2="63.03" gradientUnits="userSpaceOnUse">
      <stop offset="0" stop-color="#febe45"/>
      <stop offset="1" stop-color="#fff0ac"/>
    </linearGradient>
    <linearGradient id="linear-gradient-18" x1="240.57" y1="100.22" x2="240.57" y2="79.97" xlink:href="#linear-gradient-5"/>
    <linearGradient id="linear-gradient-19" y1="96.92" y2="79.97" xlink:href="#linear-gradient-17"/>
    <linearGradient id="linear-gradient-20" x1="220.92" y1="100.16" x2="236.44" y2="100.16" xlink:href="#linear-gradient-17"/>
    <linearGradient id="linear-gradient-21" x1="223.03" y1="103.04" x2="238.05" y2="103.04" xlink:href="#linear-gradient-5"/>
    <linearGradient id="linear-gradient-22" x1="124.13" y1="109.24" x2="124.13" y2="106.35" gradientUnits="userSpaceOnUse">
      <stop offset="0" stop-color="#463014"/>
      <stop offset="1" stop-color="#784a1e"/>
    </linearGradient>
    <linearGradient id="linear-gradient-23" x1="124.13" y1="106.35" x2="124.13" y2="103.46" xlink:href="#linear-gradient-17"/>
    <linearGradient id="linear-gradient-24" x1="239.05" y1="82.35" x2="239.05" y2="77.58" xlink:href="#linear-gradient-2"/>
    <linearGradient id="linear-gradient-25" x1="239.57" y1="75.76" x2="248.25" y2="75.76" gradientUnits="userSpaceOnUse">
      <stop offset="0" stop-color="#eda960"/>
      <stop offset="1" stop-color="#a26928"/>
    </linearGradient>
    <linearGradient id="linear-gradient-26" x1="228.96" y1="75.74" x2="239.7" y2="75.74" xlink:href="#linear-gradient-6"/>
    <linearGradient id="linear-gradient-27" x1="239.59" y1="84.18" x2="248.25" y2="84.18" gradientUnits="userSpaceOnUse">
      <stop offset="0" stop-color="#ab6127"/>
      <stop offset="1" stop-color="#743f1a"/>
    </linearGradient>
    <linearGradient id="linear-gradient-28" x1="228.96" y1="84.16" x2="239.71" y2="84.16" xlink:href="#linear-gradient-25"/>
    <linearGradient id="linear-gradient-29" x1="239.46" y1="83.08" x2="245.9" y2="83.08" xlink:href="#linear-gradient-17"/>
    <linearGradient id="linear-gradient-30" x1="231.64" y1="83.06" x2="239.59" y2="83.06" xlink:href="#linear-gradient-5"/>
    <linearGradient id="linear-gradient-31" x1="239.45" y1="76.86" x2="245.9" y2="76.86" gradientUnits="userSpaceOnUse">
      <stop offset="0" stop-color="#a15c25"/>
      <stop offset="1" stop-color="#e49745"/>
    </linearGradient>
    <linearGradient id="linear-gradient-32" x1="231.64" y1="76.84" x2="239.57" y2="76.84" xlink:href="#linear-gradient-27"/>
    <linearGradient id="linear-gradient-33" x1="239.35" y1="77.95" x2="243.55" y2="77.95" xlink:href="#linear-gradient-2"/>
    <linearGradient id="linear-gradient-34" x1="234.31" y1="81.97" x2="239.46" y2="81.97" xlink:href="#linear-gradient-2"/>
    <linearGradient id="linear-gradient-35" x1="237.94" y1="78.99" x2="236.6" y2="77.65" xlink:href="#linear-gradient-2"/>
    <linearGradient id="linear-gradient-36" x1="241.52" y1="82" x2="240.62" y2="81.1" xlink:href="#linear-gradient-2"/>
    <linearGradient id="linear-gradient-37" x1="80.03" y1="45.42" x2="124.13" y2="45.42" gradientUnits="userSpaceOnUse">
      <stop offset="0" stop-color="#de8c27"/>
      <stop offset=".72" stop-color="#ffd250"/>
      <stop offset="1" stop-color="#fee48a"/>
    </linearGradient>
    <linearGradient id="linear-gradient-38" x1="124.13" y1="45.42" x2="168.22" y2="45.42" gradientUnits="userSpaceOnUse">
      <stop offset="0" stop-color="#935423"/>
      <stop offset="1" stop-color="#e49a25"/>
    </linearGradient>
    <linearGradient id="linear-gradient-39" x1="84.81" y1="46.71" x2="124.13" y2="46.71" gradientUnits="userSpaceOnUse">
      <stop offset="0" stop-color="#483727"/>
      <stop offset="1" stop-color="#e8e7b2"/>
    </linearGradient>
    <linearGradient id="linear-gradient-40" x1="93.06" y1="112.33" x2="124.13" y2="112.33" xlink:href="#linear-gradient-38"/>
    <linearGradient id="linear-gradient-41" x1="124.13" y1="112.33" x2="155.19" y2="112.33" gradientUnits="userSpaceOnUse">
      <stop offset="0" stop-color="#935423"/>
      <stop offset="1" stop-color="#ce8429"/>
    </linearGradient>
    <linearGradient id="linear-gradient-42" x1="9.2" y1="82.35" x2="9.2" y2="77.58" xlink:href="#linear-gradient-2"/>
    <linearGradient id="linear-gradient-43" x1="0" y1="75.76" x2="8.68" y2="75.76" xlink:href="#linear-gradient-6"/>
    <linearGradient id="linear-gradient-44" x1="8.55" y1="75.74" x2="19.29" y2="75.74" xlink:href="#linear-gradient-25"/>
    <linearGradient id="linear-gradient-45" x1="0" y1="84.18" x2="8.67" y2="84.18" xlink:href="#linear-gradient-25"/>
    <linearGradient id="linear-gradient-46" x1="8.54" y1="84.16" x2="19.29" y2="84.16" xlink:href="#linear-gradient-27"/>
    <linearGradient id="linear-gradient-47" x1="2.35" y1="83.08" x2="8.79" y2="83.08" xlink:href="#linear-gradient-5"/>
    <linearGradient id="linear-gradient-48" x1="8.67" y1="83.06" x2="16.62" y2="83.06" xlink:href="#linear-gradient-17"/>
    <linearGradient id="linear-gradient-49" x1="2.35" y1="76.86" x2="8.81" y2="76.86" xlink:href="#linear-gradient-27"/>
    <linearGradient id="linear-gradient-50" x1="8.68" y1="76.84" x2="16.62" y2="76.84" xlink:href="#linear-gradient-31"/>
    <linearGradient id="linear-gradient-51" x1="7.64" y1="78.84" x2="6.74" y2="77.94" xlink:href="#linear-gradient-2"/>
    <linearGradient id="linear-gradient-52" x1="11.64" y1="82.24" x2="10.32" y2="80.92" xlink:href="#linear-gradient-2"/>
    <linearGradient id="linear-gradient-53" x1="8.81" y1="77.94" x2="13.94" y2="77.94" xlink:href="#linear-gradient-2"/>
    <linearGradient id="linear-gradient-54" x1="4.71" y1="81.99" x2="8.88" y2="81.99" xlink:href="#linear-gradient-2"/>
  </defs>
  <g class="cls-62">
    <g id="Layer_2" data-name="Layer 2">
      <g id="Layer_1-2" data-name="Layer 1">
        <g>
          <text class="cls-63" transform="translate(51.86 21.33)"><tspan x="0" y="0">BET </tspan><tspan class="cls-64" x="60.21" y="0">TO</tspan><tspan class="cls-61" x="97.4" y="0">T</tspan><tspan x="112.93" y="0">AL</tspan></text>
          <g>
            <path class="cls-13" d="M27.33,103.46H220.92c1.05-2.59,2.82-4.86,5.21-6.59,2.54-1.84,5.46-2.83,8.46-2.92,1.89-4.45,3.38-9.38,4.24-13.98-.86-4.6-2.35-9.53-4.24-13.98-3-.09-5.92-1.07-8.46-2.92-2.39-1.73-4.17-4-5.21-6.59H27.33c-1.05,2.59-2.82,4.86-5.21,6.59-2.54,1.84-5.46,2.83-8.46,2.92-1.89,4.45-3.38,9.38-4.24,13.98,.86,4.6,2.35,9.53,4.24,13.98,3,.09,5.92,1.07,8.46,2.92,2.39,1.73,4.17,4,5.21,6.59h0Z"/>
            <path class="cls-11" d="M9.42,79.97H238.83c-.86-4.6-2.35-9.53-4.24-13.98-3-.09-5.92-1.07-8.46-2.92-2.39-1.73-4.17-4-5.21-6.59H27.33c-1.05,2.59-2.82,4.86-5.21,6.59-2.54,1.84-5.46,2.83-8.46,2.92-1.89,4.45-3.38,9.38-4.24,13.98h0Z"/>
            <path class="cls-4" d="M223.38,99.4c-2.46,1.52-5.35,2.4-8.43,2.4H33.3c-3.08,0-5.97-.88-8.43-2.4,1.04,1.22,1.87,2.59,2.46,4.06H220.92c.59-1.47,1.42-2.84,2.46-4.06h0Z"/>
            <path class="cls-33" d="M124.13,101.31c41.03,0,74.3,.22,74.3,.49s-33.26,.49-74.3,.49-74.3-.22-74.3-.49,33.26-.49,74.3-.49h0Z"/>
            <path class="cls-14" d="M93.06,109.24c1.24,1.04,4.16,2.52,5.66,2.94,3.27,0,14.49-.03,25.41,3.23,10.92-3.26,22.14-3.23,25.41-3.23,1.49-.41,4.42-1.9,5.66-2.94h-62.13Z"/>
            <path class="cls-56" d="M27.33,103.46H220.92c1.05-2.59,2.82-4.86,5.21-6.59,2.54-1.84,5.46-2.83,8.46-2.92,1.89-4.45,3.38-9.38,4.24-13.98-.86-4.6-2.35-9.53-4.24-13.98-3-.09-5.92-1.07-8.46-2.92-2.39-1.73-4.17-4-5.21-6.59H27.33c-1.05,2.59-2.82,4.86-5.21,6.59-2.54,1.84-5.46,2.83-8.46,2.92-1.89,4.45-3.38,9.38-4.24,13.98,.86,4.6,2.35,9.53,4.24,13.98,3,.09,5.92,1.07,8.46,2.92,2.39,1.73,4.17,4,5.21,6.59h0Zm-4.68-52.76H225.6c0,3.14,1.38,5.85,3.93,7.69,2.55,1.84,5.54,2.31,8.53,1.33,3.13,6.17,5.56,13.79,6.65,20.25-1.09,6.46-3.51,14.08-6.65,20.25-2.99-.98-5.98-.51-8.53,1.33-2.55,1.84-3.93,4.55-3.93,7.69H22.66c0-3.14-1.38-5.85-3.93-7.69-2.55-1.84-5.54-2.31-8.53-1.33-3.13-6.17-5.56-13.79-6.65-20.25,1.09-6.46,3.51-14.08,6.65-20.25,2.99,.98,5.98,.51,8.53-1.33,2.55-1.84,3.93-4.55,3.93-7.69h0Z"/>
            <path class="cls-2" d="M20.43,60.73c2.49-1.8,4.14-4.28,4.8-7.14l-2.57-2.89c0,3.14-1.38,5.85-3.93,7.69-2.55,1.84-5.54,2.31-8.53,1.33l1.61,3.3c3.03,.36,6.04-.43,8.61-2.29h0Z"/>
            <path class="cls-29" d="M25.22,53.59c-.66,2.86-2.31,5.34-4.8,7.14-2.58,1.87-5.58,2.65-8.61,2.29l1.85,2.96c3-.09,5.92-1.07,8.46-2.92,2.39-1.73,4.17-4,5.21-6.59l-2.11-2.89h0Z"/>
            <polygon class="cls-21" points="25.22 53.59 223.03 53.59 225.6 50.7 22.66 50.7 25.22 53.59 25.22 53.59"/>
            <polygon class="cls-53" points="223.03 53.59 25.22 53.59 27.33 56.48 220.92 56.48 223.03 53.59 223.03 53.59"/>
            <path class="cls-54" d="M6.48,79.97c.99-5.6,2.89-11.67,5.33-16.95l-1.61-3.3c-3.13,6.17-5.56,13.79-6.65,20.25h2.93Z"/>
            <path class="cls-16" d="M11.81,63.03c-2.43,5.27-4.34,11.35-5.33,16.95h2.94c.86-4.6,2.35-9.53,4.24-13.98l-1.85-2.96h0Z"/>
            <path class="cls-34" d="M11.81,96.92c-2.43-5.27-4.34-11.35-5.33-16.95H3.55c1.09,6.46,3.51,14.08,6.65,20.25l1.61-3.3h0Z"/>
            <path class="cls-38" d="M6.48,79.97c.99,5.6,2.89,11.67,5.33,16.95l1.85-2.96c-1.89-4.45-3.38-9.38-4.24-13.98h-2.94Z"/>
            <path class="cls-3" d="M22.12,96.87c-2.54-1.84-5.46-2.83-8.46-2.92l-1.85,2.96c3.03-.36,6.04,.43,8.61,2.29,2.49,1.8,4.14,4.28,4.8,7.14l2.11-2.89c-1.05-2.59-2.82-4.86-5.21-6.59h0Z"/>
            <path class="cls-52" d="M20.43,99.21c-2.58-1.87-5.58-2.65-8.61-2.29l-1.61,3.3c2.99-.98,5.98-.51,8.53,1.33,2.55,1.84,3.93,4.55,3.93,7.69l2.57-2.89c-.66-2.86-2.31-5.34-4.8-7.14h0Z"/>
            <path class="cls-25" d="M227.83,60.73c-2.49-1.8-4.14-4.28-4.8-7.14l2.57-2.89c0,3.14,1.38,5.85,3.93,7.69,2.55,1.84,5.54,2.31,8.53,1.33l-1.61,3.3c-3.04,.36-6.04-.43-8.62-2.29h0Z"/>
            <path class="cls-15" d="M223.03,53.59c.66,2.86,2.31,5.34,4.8,7.14,2.58,1.87,5.58,2.65,8.62,2.29l-1.85,2.96c-3-.09-5.92-1.07-8.46-2.92-2.39-1.73-4.17-4-5.21-6.59l2.11-2.89h0Z"/>
            <path class="cls-22" d="M241.77,79.97c-.99-5.6-2.89-11.67-5.33-16.95l1.61-3.3c3.13,6.17,5.56,13.79,6.65,20.25h-2.93Z"/>
            <path class="cls-60" d="M236.44,63.03c2.43,5.27,4.34,11.35,5.33,16.95h-2.94c-.86-4.6-2.35-9.53-4.24-13.98l1.85-2.96h0Z"/>
            <path class="cls-35" d="M236.44,96.92c2.43-5.27,4.34-11.35,5.33-16.95h2.93c-1.09,6.46-3.51,14.08-6.65,20.25l-1.61-3.3h0Z"/>
            <path class="cls-42" d="M241.77,79.97c-.99,5.6-2.89,11.67-5.33,16.95l-1.85-2.96c1.89-4.45,3.38-9.38,4.24-13.98h2.94Z"/>
            <path class="cls-43" d="M226.13,96.87c2.54-1.84,5.46-2.83,8.46-2.92l1.85,2.96c-3.04-.36-6.04,.43-8.62,2.29-2.49,1.8-4.14,4.28-4.8,7.14l-2.11-2.89c1.05-2.59,2.82-4.86,5.21-6.59h0Z"/>
            <path class="cls-6" d="M227.83,99.21c2.58-1.87,5.58-2.65,8.62-2.29l1.61,3.3c-2.99-.98-5.98-.51-8.53,1.33-2.55,1.84-3.93,4.55-3.93,7.69l-2.57-2.89c.66-2.86,2.31-5.34,4.8-7.14h0Z"/>
            <polygon class="cls-50" points="25.22 106.35 223.03 106.35 225.6 109.24 22.66 109.24 25.22 106.35 25.22 106.35"/>
            <polygon class="cls-30" points="223.03 106.35 25.22 106.35 27.33 103.46 220.92 103.46 223.03 106.35 223.03 106.35"/>
            <polygon class="cls-12" points="248.25 79.97 239.7 71.55 228.96 79.92 239.7 88.4 248.25 79.97 248.25 79.97"/>
            <polygon class="cls-1" points="243.55 79.97 239.46 84 234.31 79.94 239.45 75.93 243.55 79.97 243.55 79.97"/>
            <polygon class="cls-26" points="241.78 79.97 239.37 82.35 236.32 79.94 239.35 77.58 241.78 79.97 241.78 79.97"/>
            <polygon class="cls-18" points="244.44 78.54 240.62 74.78 239.57 73.74 239.7 71.55 243.8 75.59 248.25 79.97 245.9 79.97 244.44 78.54 244.44 78.54"/>
            <polygon class="cls-24" points="237.74 75.17 231.64 79.93 228.96 79.92 237.26 73.45 239.7 71.55 239.57 73.74 237.74 75.17 237.74 75.17"/>
            <polygon class="cls-32" points="240.62 85.17 244.44 81.41 245.9 79.97 248.25 79.97 243.8 84.36 239.71 88.39 239.71 88.36 239.59 86.2 240.62 85.17 240.62 85.17"/>
            <polygon class="cls-31" points="231.64 79.93 237.75 84.75 239.58 86.2 239.59 86.2 239.71 88.36 239.71 88.39 239.7 88.4 237.26 86.48 228.96 79.92 231.64 79.93 231.64 79.93"/>
            <polygon class="cls-23" points="239.46 84 241.34 82.14 243.55 79.97 244.7 79.97 245.9 79.97 244.44 81.41 240.62 85.17 239.59 86.2 239.46 84 239.46 84"/>
            <polygon class="cls-39" points="238.19 83 239.46 84 239.59 86.2 239.58 86.2 237.75 84.75 231.64 79.93 234.31 79.94 238.19 83 238.19 83"/>
            <polygon class="cls-46" points="243.55 79.97 241.34 77.8 239.45 75.93 239.57 73.74 240.62 74.78 244.44 78.54 245.9 79.97 244.7 79.97 243.55 79.97 243.55 79.97"/>
            <polygon class="cls-37" points="238.18 76.92 234.31 79.94 231.64 79.93 237.74 75.17 239.57 73.74 239.45 75.93 238.18 76.92 238.18 76.92"/>
            <polygon class="cls-58" points="239.45 75.93 239.35 77.58 241.77 79.97 243.55 79.97 239.45 75.93 239.45 75.93"/>
            <polygon class="cls-19" points="239.46 84 239.37 82.35 236.32 79.94 234.31 79.94 239.46 84 239.46 84"/>
            <polygon class="cls-44" points="238.49 78.25 236.32 79.94 234.31 79.94 238.18 76.92 239.45 75.93 239.35 77.58 238.49 78.25 238.49 78.25"/>
            <polygon class="cls-10" points="239.37 82.35 241.77 79.99 241.78 79.97 243.55 79.97 241.34 82.14 239.46 84 239.37 82.35 239.37 82.35"/>
            <path class="cls-59" d="M80.03,50.7h88.18c-1.91-1.98-4.73-4.18-7.65-5.75-8.93,2.92-31.01,1.6-36.45-4.81-5.44,6.4-27.52,7.72-36.45,4.81-2.92,1.57-5.74,3.78-7.65,5.75h0Z"/>
            <path class="cls-27" d="M80.03,50.7h44.09v-10.56c-5.44,6.4-27.52,7.72-36.45,4.81-2.92,1.57-5.74,3.78-7.65,5.75h0Z"/>
            <path class="cls-5" d="M168.22,50.7h-44.09v-10.56c5.44,6.4,27.52,7.72,36.45,4.81,2.92,1.57,5.74,3.78,7.65,5.75h0Z"/>
            <path class="cls-48" d="M120.04,47.41c-9.01,3.15-25.78,3-35.22,3.3h39.31v-7.99c0,2.32-.72,3.52-4.09,4.7h0Z"/>
            <path class="cls-20" d="M93.06,109.24c1.24,1.04,4.16,2.52,5.66,2.94,3.27,0,14.49-.03,25.41,3.23v-6.17h-31.06Z"/>
            <path class="cls-36" d="M155.19,109.24c-1.24,1.04-4.16,2.52-5.66,2.94-3.27,0-14.49-.03-25.41,3.23v-6.17h31.06Z"/>
            <polygon class="cls-12" points="0 79.97 8.55 71.55 19.29 79.92 8.55 88.4 0 79.97 0 79.97"/>
            <polygon class="cls-1" points="4.71 79.97 8.79 84 13.94 79.94 8.81 75.93 4.71 79.97 4.71 79.97"/>
            <polygon class="cls-41" points="6.47 79.97 8.88 82.35 11.94 79.94 8.9 77.58 6.47 79.97 6.47 79.97"/>
            <polygon class="cls-57" points="3.81 78.54 7.63 74.78 8.68 73.74 8.55 71.55 4.45 75.59 0 79.97 2.35 79.97 3.81 78.54 3.81 78.54"/>
            <polygon class="cls-8" points="10.51 75.17 16.62 79.93 19.29 79.92 10.99 73.45 8.55 71.55 8.68 73.74 10.51 75.17 10.51 75.17"/>
            <polygon class="cls-40" points="7.63 85.17 3.81 81.41 2.35 79.97 0 79.97 4.45 84.36 8.54 88.39 8.54 88.36 8.67 86.2 7.63 85.17 7.63 85.17"/>
            <polygon class="cls-55" points="16.62 79.93 10.51 84.75 8.67 86.2 8.67 86.2 8.54 88.36 8.54 88.39 8.55 88.4 10.99 86.48 19.29 79.92 16.62 79.93 16.62 79.93"/>
            <polygon class="cls-45" points="8.79 84 6.91 82.14 4.71 79.97 3.55 79.97 2.35 79.97 3.81 81.41 7.63 85.17 8.67 86.2 8.79 84 8.79 84"/>
            <polygon class="cls-7" points="10.06 83 8.79 84 8.67 86.2 8.67 86.2 10.51 84.75 16.62 79.93 13.94 79.94 10.06 83 10.06 83"/>
            <polygon class="cls-28" points="4.71 79.97 6.91 77.8 8.81 75.93 8.68 73.74 7.63 74.78 3.81 78.54 2.35 79.97 3.55 79.97 4.71 79.97 4.71 79.97"/>
            <polygon class="cls-51" points="10.07 76.92 13.94 79.94 16.62 79.93 10.51 75.17 8.68 73.74 8.81 75.93 10.07 76.92 10.07 76.92"/>
            <polygon class="cls-17" points="8.81 75.93 8.9 77.58 6.48 79.97 4.71 79.97 8.81 75.93 8.81 75.93"/>
            <polygon class="cls-49" points="8.79 84 8.88 82.35 11.94 79.94 13.94 79.94 8.79 84 8.79 84"/>
            <polygon class="cls-47" points="9.77 78.25 11.94 79.94 13.94 79.94 10.07 76.92 8.81 75.93 8.9 77.58 9.77 78.25 9.77 78.25"/>
            <polygon class="cls-9" points="8.88 82.35 6.49 79.99 6.47 79.97 4.71 79.97 6.91 82.14 8.79 84 8.88 82.35 8.88 82.35"/>
          </g>
        </g>
      </g>
    </g>
  </g>
</svg>