<?xml version="1.0" encoding="UTF-8"?>
<svg id="Layer_2" data-name="Layer 2" xmlns="http://www.w3.org/2000/svg" xmlns:xlink="http://www.w3.org/1999/xlink" viewBox="0 0 208.6 99.25">
  <defs>
    <style>
      .cls-1 {
        fill: #00a651;
        font-family: Montserrat-Black, Montserrat;
        font-size: 37.7px;
        font-weight: 800;
      }

      .cls-2 {
        fill: #febe10;
      }

      .cls-3 {
        fill: url(#radial-gradient);
      }
    </style>
    <radialGradient id="radial-gradient" cx="927.5" cy="67.2" fx="927.5" fy="67.2" r="114.16" gradientTransform="translate(-524.61 6.1) scale(.68 .64)" gradientUnits="userSpaceOnUse">
      <stop offset="0" stop-color="#382512"/>
      <stop offset="1" stop-color="#020202"/>
    </radialGradient>
  </defs>
  <g id="Layer_1-2" data-name="Layer 1">
    <g>
      <polygon class="cls-2" points="208.6 32.28 208.6 9.4 207.13 8.22 207.13 3.46 196.76 3.46 193.21 .61 157.77 .61 154.22 3.46 135.39 3.46 133.7 2.11 84.76 2.11 83.07 3.46 63.78 3.46 59.47 0 37.37 0 33.06 3.46 1.63 3.46 1.63 10.05 .01 11.35 .01 20.22 1.63 21.52 1.63 48.53 .01 49.83 .01 58.71 1.63 60.01 1.63 71.34 0 72.65 0 90.51 1.63 91.82 1.63 96.27 8.97 96.27 12.68 99.25 31.36 99.25 35.07 96.27 104.78 96.27 106.8 97.89 148.35 97.89 150.38 96.27 173.86 96.27 177.57 99.25 196.25 99.25 199.96 96.27 207.13 96.27 207.13 85.15 208.34 84.18 208.34 50.82 207.13 49.84 207.13 33.47 208.6 32.28"/>
      <polygon class="cls-3" points="203.27 57.69 203.27 36.55 204.74 35.46 204.74 7.8 149.05 7.8 146.18 9.93 110.75 9.93 107.88 7.8 75.21 7.8 73.58 9.01 51.33 9.01 49.7 7.8 4.02 7.8 4.02 18 6.33 19.72 6.33 36.22 4.02 37.94 4.02 90 204.74 90 204.74 58.79 203.27 57.69"/>
      <text class="cls-1" transform="translate(18.58 43.17)"><tspan x="0" y="0">6 7 8 9 0</tspan></text>
    </g>
  </g>
</svg>